<?xml version="1.0" encoding="utf-8"?>
<!-- Generator: Adobe Illustrator 26.3.1, SVG Export Plug-In . SVG Version: 6.00 Build 0)  -->
<svg version="1.1" id="Layer_1" xmlns="http://www.w3.org/2000/svg" xmlns:xlink="http://www.w3.org/1999/xlink" x="0px" y="0px"
	 viewBox="0 0 100 25" style="enable-background:new 0 0 100 25;" xml:space="preserve">
<style type="text/css">
	.st0{fill:#FFFFFF;}
</style>
<g>
	<path class="st0" d="M9.66,6.78c0.76,0.47,1.28,1.25,1.57,2.34c0.29,1.09,0.38,2.3,0.28,3.64c-0.1,1.34-0.39,2.72-0.85,4.15
		c-0.46,1.43-1.06,2.74-1.81,3.92c-0.75,1.18-1.62,2.15-2.62,2.91c-1,0.76-2.09,1.14-3.26,1.14c-1.26,0-2.15-0.57-2.66-1.7
		C0.08,22.66-0.02,21.99,0,21.16c0.02-0.83,0.14-1.74,0.34-2.75c0.21-1.01,0.47-2.08,0.79-3.21c0.32-1.14,0.67-2.28,1.03-3.43
		c0.37-1.15,0.73-2.28,1.09-3.39c0.36-1.11,0.66-2.14,0.9-3.07C4.4,4.37,4.57,3.55,4.68,2.82c0.1-0.72,0.09-1.28-0.05-1.69
		c-0.14-0.4-0.06-0.71,0.22-0.92C5.14,0,5.5-0.05,5.95,0.06c0.45,0.11,0.9,0.4,1.36,0.87c0.46,0.47,0.79,1.18,1,2.13
		c0.07,0.35,0.07,0.82,0,1.38C8.25,5.01,8.13,5.66,7.97,6.39C8.48,6.25,9.04,6.38,9.66,6.78z M4.38,20.56
		c0.16,0.05,0.37-0.17,0.64-0.64c0.26-0.47,0.54-1.08,0.83-1.83c0.29-0.75,0.57-1.56,0.86-2.45c0.29-0.89,0.52-1.72,0.71-2.5
		c0.18-0.78,0.3-1.44,0.36-1.97c0.06-0.53,0.02-0.82-0.12-0.87c-0.16-0.05-0.37,0.17-0.62,0.66c-0.25,0.49-0.52,1.09-0.81,1.83
		c-0.29,0.73-0.58,1.54-0.86,2.43c-0.29,0.89-0.53,1.72-0.72,2.5c-0.2,0.78-0.32,1.44-0.38,1.97C4.2,20.22,4.25,20.51,4.38,20.56z"
		/>
	<path class="st0" d="M19.66,24.89c-0.55,0-1.08-0.14-1.59-0.41c-0.51-0.27-0.86-0.72-1.07-1.33c-0.05-0.07-0.07-0.15-0.09-0.25
		c-0.01-0.09-0.03-0.19-0.05-0.28c-0.25,0.62-0.61,1.15-1.07,1.6c-0.46,0.45-1.02,0.67-1.69,0.67c-0.55,0-1.07-0.14-1.55-0.41
		c-0.48-0.27-0.85-0.72-1.1-1.33c-0.25-0.59-0.35-1.32-0.29-2.18c0.06-0.86,0.2-1.79,0.41-2.79c0.22-0.99,0.49-2.02,0.81-3.09
		c0.32-1.06,0.63-2.08,0.93-3.05c0.3-0.97,0.55-1.86,0.74-2.66c0.2-0.8,0.27-1.47,0.22-1.99c-0.05-0.43,0.13-0.73,0.53-0.92
		c0.4-0.19,0.84-0.24,1.33-0.16c0.48,0.08,0.93,0.32,1.35,0.71c0.41,0.39,0.62,0.95,0.62,1.69c0,0.66-0.09,1.36-0.28,2.09
		c-0.18,0.73-0.41,1.54-0.67,2.43c-0.26,0.89-0.55,1.86-0.86,2.93c-0.31,1.06-0.58,2.26-0.81,3.59c-0.14,0.57-0.15,0.98-0.03,1.24
		c0.11,0.26,0.26,0.39,0.45,0.39c0.18,0,0.34-0.11,0.47-0.32c0.13-0.21,0.23-0.48,0.31-0.82c0.08-0.33,0.16-0.69,0.22-1.08
		c0.07-0.39,0.15-0.76,0.24-1.12c0.16-0.9,0.36-1.82,0.6-2.77c0.24-0.95,0.49-1.85,0.76-2.72c0.26-0.86,0.53-1.65,0.81-2.36
		c0.28-0.71,0.52-1.29,0.72-1.74c0.34-0.71,0.81-1.23,1.4-1.56c0.59-0.33,1.14-0.5,1.66-0.5s0.92,0.15,1.21,0.44
		c0.29,0.3,0.3,0.72,0.05,1.26c-0.32,0.71-0.66,1.57-1,2.59c-0.34,1.02-0.68,2.07-1,3.14c-0.32,1.08-0.61,2.14-0.86,3.18
		c-0.25,1.04-0.44,1.95-0.55,2.73c-0.12,0.57-0.1,0.98,0.03,1.24c0.14,0.26,0.3,0.39,0.48,0.39c0.21,0,0.4-0.12,0.59-0.35
		c0.18-0.24,0.36-0.54,0.53-0.91c0.17-0.37,0.33-0.76,0.47-1.17c0.14-0.41,0.25-0.8,0.34-1.15c0.16-0.69,0.34-1.01,0.55-0.96
		c0.21,0.05,0.23,0.43,0.07,1.14c-0.07,0.35-0.2,0.92-0.38,1.69c-0.18,0.77-0.44,1.54-0.78,2.31c-0.33,0.77-0.76,1.45-1.28,2.04
		C21.06,24.59,20.42,24.89,19.66,24.89z"/>
	<path class="st0" d="M32.11,24.89c-0.55,0-1.08-0.14-1.59-0.41c-0.51-0.27-0.87-0.72-1.1-1.33c-0.16-0.43-0.25-0.88-0.28-1.35
		c-0.32,0.83-0.75,1.55-1.28,2.17c-0.53,0.62-1.18,0.92-1.97,0.92c-0.55,0-1.08-0.14-1.59-0.41c-0.51-0.27-0.87-0.72-1.1-1.33
		c-0.32-0.83-0.4-1.89-0.22-3.19c0.17-1.3,0.47-2.72,0.88-4.24c0.41-1.53,0.91-3.12,1.48-4.77c0.57-1.66,1.12-3.27,1.62-4.83h-0.86
		c-0.39,0-0.66-0.09-0.79-0.27c-0.14-0.18-0.17-0.37-0.1-0.59c0.07-0.21,0.24-0.41,0.5-0.59c0.26-0.18,0.6-0.25,1.02-0.23
		c0.11,0,0.24,0.01,0.36,0.02c0.13,0.01,0.26,0.02,0.4,0.02l0.52-1.85c0.11-0.43,0.28-0.8,0.48-1.12c0.21-0.32,0.45-0.5,0.72-0.53
		c0.28-0.04,0.57,0.13,0.88,0.5c0.31,0.37,0.63,1.04,0.95,2.01c0.05,0.14,0.08,0.3,0.1,0.46c0.02,0.17,0.03,0.34,0.03,0.53
		c0.48-0.02,0.93-0.05,1.35-0.07c0.41-0.02,0.82-0.06,1.21-0.11l0.48-1.67c0.11-0.43,0.28-0.8,0.48-1.12
		c0.21-0.32,0.45-0.5,0.72-0.53c0.28-0.04,0.57,0.13,0.88,0.5c0.31,0.37,0.63,1.04,0.95,2.01c0.05,0.14,0.07,0.25,0.07,0.32
		c0.92-0.19,1.6-0.33,2.05-0.43c0.45-0.09,0.8-0.06,1.05,0.11c0.21,0.14,0.3,0.37,0.28,0.67c-0.02,0.31-0.13,0.62-0.33,0.94
		c-0.2,0.32-0.46,0.6-0.79,0.83c-0.33,0.24-0.7,0.35-1.09,0.35h-1.35c-0.16,0.78-0.39,1.66-0.69,2.63c-0.3,0.97-0.63,2.02-0.98,3.16
		c-0.36,1.14-0.71,2.34-1.07,3.62c-0.36,1.28-0.67,2.63-0.95,4.05c-0.12,0.57-0.12,0.98,0,1.24c0.11,0.26,0.26,0.39,0.45,0.39
		c0.18,0,0.37-0.12,0.57-0.35c0.2-0.24,0.37-0.54,0.53-0.91c0.16-0.37,0.31-0.76,0.45-1.17c0.14-0.41,0.25-0.8,0.34-1.15
		c0.18-0.69,0.37-1.01,0.57-0.96c0.2,0.05,0.21,0.43,0.05,1.14c-0.07,0.35-0.2,0.92-0.38,1.69c-0.18,0.77-0.44,1.54-0.76,2.31
		c-0.32,0.77-0.74,1.45-1.26,2.04C33.51,24.59,32.87,24.89,32.11,24.89z M27.7,21.37c0.16,0,0.32-0.09,0.48-0.28
		c0.16-0.19,0.32-0.43,0.48-0.73c0.16-0.3,0.3-0.62,0.43-0.98c0.13-0.35,0.25-0.71,0.36-1.06c0.16-0.9,0.38-1.85,0.67-2.84
		c0.29-0.99,0.6-2.01,0.93-3.05c0.33-1.04,0.68-2.08,1.03-3.12c0.36-1.04,0.7-2.06,1.02-3.05c-0.37-0.02-0.73-0.04-1.09-0.04
		c-0.36,0-0.71,0-1.05,0C30.81,7,30.58,7.87,30.28,8.84c-0.3,0.97-0.63,2.02-0.98,3.16c-0.36,1.14-0.72,2.36-1.09,3.66
		c-0.37,1.3-0.69,2.66-0.97,4.08c-0.12,0.57-0.12,0.98,0,1.24C27.36,21.24,27.51,21.37,27.7,21.37z"/>
	<path class="st0" d="M46.01,17.79c0.25-0.66,0.47-0.98,0.64-0.94c0.17,0.04,0.17,0.41-0.02,1.12c-0.18,0.78-0.47,1.63-0.84,2.54
		c-0.38,0.91-0.85,1.73-1.41,2.45c-0.56,0.72-1.24,1.28-2.02,1.67c-0.78,0.39-1.67,0.48-2.66,0.27c-0.94-0.21-1.7-0.64-2.28-1.28
		c-0.58-0.64-0.99-1.41-1.26-2.33c-0.26-0.91-0.39-1.91-0.38-3c0.01-1.09,0.14-2.19,0.4-3.3c0.25-1.11,0.61-2.18,1.07-3.21
		c0.46-1.03,1.01-1.95,1.64-2.75c0.63-0.8,1.32-1.45,2.07-1.93c0.75-0.48,1.55-0.73,2.4-0.73c0.67,0,1.25,0.16,1.74,0.48
		c0.49,0.32,0.88,0.75,1.17,1.3c0.29,0.54,0.46,1.19,0.52,1.93c0.06,0.75-0.02,1.54-0.22,2.4c-0.34,1.42-0.81,2.54-1.4,3.37
		c-0.59,0.83-1.19,1.45-1.81,1.86c-0.62,0.41-1.22,0.65-1.79,0.71c-0.58,0.06-1.05,0.03-1.41-0.09c0,0.69,0.07,1.27,0.22,1.74
		c0.15,0.47,0.48,0.82,0.98,1.03c0.41,0.19,0.84,0.23,1.29,0.11c0.45-0.12,0.88-0.34,1.31-0.66c0.43-0.32,0.82-0.72,1.17-1.19
		C45.49,18.88,45.78,18.36,46.01,17.79z M42.7,10.58c-0.16-0.02-0.36,0.14-0.59,0.5c-0.23,0.35-0.47,0.82-0.71,1.4
		c-0.24,0.58-0.47,1.24-0.67,1.97c-0.21,0.73-0.36,1.47-0.45,2.2c0.62-0.35,1.12-0.86,1.5-1.53c0.38-0.66,0.67-1.33,0.86-1.99
		c0.2-0.66,0.29-1.25,0.29-1.76C42.94,10.87,42.86,10.6,42.7,10.58z"/>
	<path class="st0" d="M58.25,11.32c0.18-0.71,0.37-1.04,0.57-0.99c0.2,0.05,0.21,0.42,0.05,1.13c-0.05,0.23-0.13,0.58-0.24,1.04
		c-0.12,0.46-0.26,0.96-0.45,1.5c-0.18,0.54-0.4,1.09-0.66,1.64c-0.25,0.56-0.54,1.05-0.86,1.47c-0.32,0.43-0.69,0.76-1.1,1.01
		c-0.41,0.25-0.86,0.34-1.35,0.27c-0.64-0.09-1.09-0.35-1.33-0.78c-0.24-0.43-0.37-0.93-0.38-1.51c-0.01-0.58,0.05-1.19,0.17-1.84
		c0.13-0.65,0.26-1.25,0.4-1.8c0.14-0.55,0.22-1,0.26-1.36c0.03-0.35-0.04-0.53-0.22-0.53c-0.18,0-0.42,0.26-0.71,0.78
		c-0.29,0.52-0.56,1.16-0.81,1.92c-0.23,0.88-0.49,1.79-0.79,2.73c-0.3,0.95-0.56,1.87-0.78,2.77c-0.22,0.9-0.36,1.74-0.41,2.52
		c-0.06,0.78,0.04,1.43,0.29,1.95c0.23,0.5,0.2,0.89-0.09,1.17c-0.29,0.28-0.68,0.44-1.17,0.46c-0.49,0.02-1.01-0.11-1.55-0.39
		c-0.54-0.28-0.95-0.73-1.22-1.35c-0.3-0.69-0.43-1.48-0.38-2.38c0.05-0.9,0.2-1.84,0.45-2.82c0.25-0.98,0.55-1.98,0.9-3
		c0.34-1.02,0.66-1.99,0.95-2.93c0.29-0.93,0.5-1.79,0.64-2.57c0.14-0.78,0.11-1.43-0.07-1.95c-0.14-0.4-0.06-0.7,0.22-0.91
		c0.29-0.2,0.66-0.25,1.1-0.14c0.45,0.11,0.9,0.4,1.36,0.87c0.46,0.47,0.78,1.18,0.97,2.13c0.44-0.9,0.97-1.64,1.59-2.24
		c0.62-0.59,1.29-0.89,2-0.89c0.67,0,1.13,0.21,1.38,0.64c0.25,0.42,0.38,0.95,0.38,1.57c0,0.62-0.08,1.31-0.24,2.05
		c-0.16,0.74-0.33,1.43-0.5,2.05c-0.17,0.62-0.3,1.15-0.4,1.57c-0.09,0.42-0.06,0.64,0.1,0.64c0.21,0,0.4-0.12,0.59-0.35
		c0.18-0.23,0.36-0.53,0.53-0.88c0.17-0.35,0.33-0.73,0.47-1.14C58.05,12.05,58.16,11.67,58.25,11.32z"/>
	<path class="st0" d="M73.84,17.79c0.18-0.69,0.37-1.01,0.57-0.96c0.2,0.05,0.21,0.43,0.05,1.14c-0.07,0.35-0.2,0.92-0.38,1.69
		c-0.18,0.77-0.44,1.54-0.78,2.31c-0.33,0.77-0.76,1.45-1.28,2.04c-0.52,0.59-1.16,0.89-1.91,0.89c-0.55,0-1.07-0.14-1.55-0.41
		c-0.48-0.27-0.85-0.72-1.1-1.33c-0.18-0.38-0.28-0.85-0.29-1.4c-0.01-0.56,0.02-1.18,0.1-1.86c0.08-0.69,0.21-1.42,0.4-2.2
		c0.18-0.78,0.39-1.59,0.62-2.41c0.16-0.59,0.32-1.17,0.47-1.74c0.15-0.57,0.27-1.07,0.36-1.51c0.09-0.44,0.14-0.79,0.14-1.05
		c0-0.26-0.07-0.39-0.21-0.39c-0.18,0-0.41,0.23-0.67,0.69c-0.26,0.46-0.52,1.04-0.78,1.72c-0.23,0.85-0.49,1.77-0.79,2.75
		c-0.3,0.98-0.56,1.94-0.78,2.88c-0.22,0.94-0.36,1.81-0.41,2.63c-0.06,0.82,0.04,1.49,0.29,2.01c0.23,0.5,0.2,0.89-0.09,1.17
		c-0.29,0.28-0.68,0.44-1.17,0.46c-0.49,0.02-1.01-0.11-1.53-0.39c-0.53-0.28-0.93-0.73-1.21-1.35c-0.21-0.5-0.32-1.06-0.34-1.69
		c-0.02-0.63,0.02-1.28,0.12-1.97c0.1-0.69,0.25-1.38,0.43-2.08c0.18-0.7,0.38-1.35,0.59-1.97c0.48-1.54,0.8-2.73,0.97-3.59
		c0.16-0.85,0.1-1.28-0.17-1.28c-0.21,0-0.45,0.26-0.74,0.78c-0.29,0.52-0.56,1.16-0.81,1.92c-0.23,0.88-0.49,1.79-0.79,2.73
		c-0.3,0.95-0.56,1.87-0.78,2.77c-0.22,0.9-0.36,1.74-0.41,2.52c-0.06,0.78,0.04,1.43,0.29,1.95c0.23,0.5,0.2,0.89-0.09,1.17
		c-0.29,0.28-0.68,0.44-1.17,0.46c-0.49,0.02-1.01-0.11-1.55-0.39c-0.54-0.28-0.95-0.73-1.22-1.35c-0.3-0.69-0.43-1.48-0.38-2.38
		c0.05-0.9,0.2-1.84,0.45-2.82c0.25-0.98,0.55-1.98,0.9-3c0.34-1.02,0.66-1.99,0.95-2.93c0.29-0.93,0.5-1.79,0.64-2.57
		c0.14-0.78,0.11-1.43-0.07-1.95c-0.14-0.38-0.07-0.67,0.21-0.89c0.28-0.21,0.64-0.27,1.09-0.18c0.45,0.09,0.9,0.37,1.35,0.83
		c0.45,0.46,0.78,1.17,0.98,2.11c0.44-0.9,0.97-1.63,1.6-2.2c0.63-0.57,1.3-0.85,2.02-0.85c1.49,0,2.26,0.92,2.31,2.77
		c0.41-0.8,0.9-1.47,1.45-1.99c0.55-0.52,1.16-0.78,1.83-0.78c1.1,0,1.81,0.51,2.12,1.54c0.31,1.03,0.19,2.61-0.36,4.74
		c-0.12,0.45-0.26,1.01-0.45,1.69c-0.18,0.67-0.36,1.36-0.53,2.06c-0.17,0.7-0.33,1.35-0.48,1.97c-0.15,0.62-0.26,1.09-0.33,1.42
		c-0.12,0.57-0.12,0.98-0.02,1.24c0.1,0.26,0.25,0.39,0.43,0.39c0.21,0,0.4-0.12,0.59-0.35c0.18-0.24,0.36-0.54,0.53-0.91
		c0.17-0.37,0.33-0.76,0.47-1.17C73.64,18.53,73.75,18.14,73.84,17.79z"/>
	<path class="st0" d="M76.43,24.89c-0.55,0-1.09-0.14-1.6-0.41c-0.52-0.27-0.88-0.72-1.09-1.33c-0.16-0.47-0.25-1.07-0.26-1.79
		c-0.01-0.72,0.04-1.5,0.16-2.33c0.12-0.83,0.27-1.69,0.47-2.59c0.2-0.9,0.41-1.76,0.64-2.59c0.23-0.83,0.46-1.61,0.69-2.34
		c0.23-0.73,0.45-1.35,0.66-1.85c0.28-0.73,0.69-1.28,1.24-1.63c0.55-0.35,1.09-0.54,1.6-0.57c0.52-0.02,0.93,0.11,1.24,0.39
		c0.31,0.28,0.38,0.71,0.22,1.28c-0.23,0.76-0.48,1.59-0.74,2.48c-0.26,0.9-0.52,1.82-0.78,2.77c-0.25,0.95-0.49,1.88-0.71,2.8
		c-0.22,0.92-0.39,1.77-0.5,2.56c-0.09,0.57-0.07,0.98,0.07,1.24c0.14,0.26,0.3,0.39,0.48,0.39c0.18,0,0.37-0.12,0.57-0.35
		c0.2-0.24,0.37-0.54,0.53-0.91c0.16-0.37,0.31-0.76,0.45-1.17c0.14-0.41,0.25-0.8,0.34-1.15c0.09-0.35,0.19-0.61,0.29-0.76
		c0.1-0.15,0.2-0.22,0.28-0.2c0.08,0.02,0.13,0.13,0.16,0.32c0.02,0.19-0.01,0.46-0.1,0.82c-0.07,0.35-0.2,0.92-0.38,1.69
		c-0.18,0.77-0.44,1.54-0.76,2.31c-0.32,0.77-0.74,1.45-1.26,2.04C77.83,24.59,77.19,24.89,76.43,24.89z M82.33,3.98
		c0,0.71-0.24,1.31-0.72,1.81c-0.48,0.5-1.06,0.75-1.72,0.75c-0.69,0-1.28-0.25-1.76-0.75c-0.48-0.5-0.72-1.1-0.72-1.81
		c0-0.69,0.24-1.28,0.72-1.77c0.48-0.5,1.07-0.75,1.76-0.75c0.67,0,1.24,0.25,1.72,0.75C82.09,2.7,82.33,3.29,82.33,3.98z"/>
	<path class="st0" d="M82.53,24.89c-0.55,0-1.07-0.14-1.55-0.41c-0.48-0.27-0.85-0.7-1.1-1.3c-0.3-0.69-0.37-1.64-0.22-2.86
		c0.15-1.22,0.41-2.56,0.79-4.03c0.38-1.47,0.82-2.98,1.33-4.54c0.51-1.56,0.97-3.04,1.4-4.44c0.43-1.4,0.75-2.64,0.98-3.75
		c0.23-1.1,0.25-1.91,0.07-2.43c-0.14-0.4-0.06-0.71,0.22-0.92c0.29-0.21,0.66-0.27,1.1-0.16c0.45,0.11,0.9,0.4,1.36,0.87
		c0.46,0.47,0.78,1.18,0.97,2.13c0.09,0.43,0.08,1.01-0.03,1.76c-0.12,0.75-0.29,1.59-0.53,2.54c-0.24,0.95-0.52,1.96-0.85,3.04
		c-0.32,1.08-0.64,2.16-0.97,3.25c-0.32,1.09-0.63,2.16-0.91,3.21c-0.29,1.05-0.51,2.02-0.67,2.89c-0.12,0.57-0.12,0.98-0.02,1.24
		c0.1,0.26,0.25,0.39,0.43,0.39c0.21,0,0.4-0.12,0.59-0.35c0.18-0.24,0.36-0.54,0.53-0.91c0.17-0.37,0.33-0.76,0.47-1.17
		c0.14-0.41,0.25-0.8,0.34-1.15c0.18-0.69,0.37-1.01,0.57-0.96c0.2,0.05,0.21,0.43,0.05,1.14c-0.07,0.35-0.2,0.92-0.38,1.69
		c-0.18,0.77-0.44,1.54-0.76,2.31c-0.32,0.77-0.75,1.45-1.28,2.04C83.94,24.59,83.29,24.89,82.53,24.89z"/>
	<path class="st0" d="M94.47,16.01c0.23,0.5,0.37,1.06,0.43,1.69c0.06,0.63,0.11,1.22,0.17,1.77c0.06,0.56,0.14,1.02,0.26,1.38
		c0.11,0.37,0.34,0.54,0.69,0.51c0.16-0.02,0.33-0.16,0.52-0.41c0.18-0.25,0.36-0.55,0.53-0.91c0.17-0.35,0.33-0.73,0.47-1.14
		c0.14-0.4,0.25-0.78,0.34-1.14c0.09-0.35,0.19-0.61,0.29-0.76c0.1-0.15,0.2-0.22,0.28-0.2c0.08,0.02,0.13,0.13,0.16,0.32
		c0.02,0.19-0.01,0.46-0.1,0.82c-0.07,0.35-0.2,0.92-0.38,1.69c-0.18,0.77-0.44,1.54-0.76,2.31c-0.32,0.77-0.74,1.45-1.26,2.04
		c-0.52,0.59-1.16,0.89-1.91,0.89c-0.48,0-0.97-0.19-1.45-0.57c-0.48-0.38-0.89-1.02-1.21-1.92c-0.21-0.59-0.32-1.17-0.33-1.74
		c-0.01-0.57,0-1.13,0.03-1.69c0.03-0.56,0.05-1.09,0.05-1.6c0-0.51-0.09-1.01-0.28-1.51c-0.23,0.83-0.44,1.62-0.62,2.38
		c-0.18,0.76-0.33,1.46-0.43,2.09c-0.1,0.64-0.15,1.21-0.14,1.7c0.01,0.5,0.09,0.9,0.22,1.21c0.23,0.5,0.21,0.89-0.07,1.17
		c-0.28,0.28-0.66,0.44-1.16,0.46c-0.49,0.02-1.01-0.11-1.55-0.39c-0.54-0.28-0.95-0.73-1.22-1.35c-0.3-0.69-0.37-1.64-0.22-2.86
		c0.15-1.22,0.41-2.56,0.79-4.01c0.38-1.46,0.82-2.96,1.33-4.53c0.51-1.56,0.97-3.05,1.4-4.46c0.43-1.41,0.75-2.66,0.98-3.76
		c0.23-1.1,0.25-1.91,0.07-2.43c-0.14-0.4-0.06-0.7,0.22-0.91c0.29-0.2,0.66-0.25,1.1-0.14c0.45,0.11,0.9,0.4,1.36,0.87
		c0.46,0.47,0.78,1.18,0.97,2.13C94.15,3.5,94.13,4.11,94,4.87c-0.13,0.76-0.31,1.62-0.55,2.57c-0.24,0.96-0.53,1.99-0.86,3.09
		c-0.33,1.1-0.66,2.21-0.98,3.32c0.57-0.4,1.02-0.94,1.33-1.62c0.31-0.67,0.6-1.37,0.86-2.09c0.26-0.72,0.57-1.41,0.91-2.08
		c0.34-0.66,0.86-1.17,1.55-1.53c0.53-0.28,1.07-0.4,1.64-0.34c0.56,0.06,1.03,0.21,1.41,0.44c0.38,0.24,0.6,0.51,0.67,0.83
		c0.07,0.32-0.12,0.6-0.55,0.83c-0.48,0.26-0.83,0.58-1.05,0.96c-0.22,0.38-0.42,0.8-0.6,1.26c-0.18,0.46-0.41,0.95-0.69,1.46
		c-0.28,0.51-0.7,1.01-1.28,1.51c-0.39,0.33-0.78,0.59-1.16,0.78c-0.38,0.19-0.75,0.33-1.12,0.43
		C93.88,15.03,94.19,15.47,94.47,16.01z"/>
</g>
</svg>
