<?xml version="1.0" encoding="utf-8"?>
<!-- Generator: Adobe Illustrator 26.3.1, SVG Export Plug-In . SVG Version: 6.00 Build 0)  -->
<svg version="1.1" id="Layer_1" xmlns="http://www.w3.org/2000/svg" xmlns:xlink="http://www.w3.org/1999/xlink" x="0px" y="0px"
	 viewBox="0 0 32 32" style="enable-background:new 0 0 32 32;" xml:space="preserve">
<style type="text/css">
	.st0{fill:#FFFFFF;}
</style>
<path class="st0" d="M17.94,30.1c-0.08,0-0.14-0.05-0.17-0.12c-0.12-0.38-0.44-0.32-0.47-0.32c-0.05,0.01-0.11,0-0.15-0.04
	c-0.29-0.26-0.19-0.7-0.12-0.89c-0.38-0.68,0.38-2.18,1.13-3.64c0.23-0.46,0.46-0.89,0.61-1.24c0.37-0.85,0.22-1.39,0.07-1.65
	c-1.27,2.97-2.11,3.53-2.44,3.62c-0.34,0.69-0.73,0.57-0.77,0.55c-0.04-0.01-0.08-0.05-0.1-0.09c-0.15-0.31-0.43-0.24-0.48-0.22
	c-0.05,0.02-0.12,0.01-0.16-0.03c-0.31-0.24-0.24-0.68-0.13-0.95c-0.38-0.9,0.67-4.15,1-5.12c-1.66-0.81-5.55,0.25-6.44,1.3
	c-0.47,0.55-1.08,2.25-1.21,3.79c-0.2,2.35-0.58,3-0.82,3.17c-0.13,0.46-0.44,0.56-0.47,0.57c-0.07,0.02-0.14-0.01-0.18-0.06
	c-0.1-0.13-0.22-0.07-0.28-0.02c-0.04,0.03-0.09,0.04-0.13,0.03c-0.34-0.05-0.46-0.41-0.49-0.66c-0.26-0.23-0.4-1.04-0.32-3.54
	l0-0.05c0.02-0.59-0.23-1.87-0.33-2.39c-0.99,0.61-1.4,1.81-1.4,1.82c-0.96,3.59-1.64,4.38-1.98,4.51c-0.25,0.51-0.56,0.54-0.6,0.54
	c-0.07-0.01-0.13-0.04-0.17-0.1c-0.03-0.06-0.06-0.1-0.1-0.11c-0.07-0.02-0.16,0.03-0.18,0.05c-0.1,0.07-0.25,0.02-0.34-0.07
	c-0.15-0.17-0.15-0.52-0.13-0.69c-0.69-1.27,0.93-6.87,0.95-6.93c0.1-0.34,0.06-1.26-0.11-1.61c-0.24-0.48,0.14-0.86,0.38-1
	c0.32-0.15,0.57-0.24,0.57-0.24c0.48-0.18,0.94-1.23,1.07-1.61c0.54-1.87,1.58-3.63,2.03-4.34c-1.14,0.15-1.92-0.07-2.32-0.66
	C1.5,9.79,4.69,4.9,4.83,4.69c0.05-0.08,0.15-0.1,0.23-0.06c0.08,0.04,0.11,0.14,0.08,0.22C4.82,5.6,4.96,6.84,5.08,7.52
	C5.35,7.08,5.69,6.72,5.7,6.7c0.05-0.06,0.13-0.07,0.2-0.04C5.97,6.69,6.01,6.76,6,6.83C5.93,7.68,6.3,8.59,6.5,9
	c0.81-0.85,1.83-0.94,1.87-0.95c2.24-0.21,4.09,0.16,5.58,0.45c0.94,0.18,1.75,0.34,2.4,0.31c1.01-0.05,2.54-0.23,4.22-1.14
	c1.1-0.59,2.92-1.52,3.34-1.74c0.13-1.15,2.44-3.86,3.28-4.01c0.3-0.05,0.52,0,0.64,0.15c0.19,0.25,0.02,0.64,0,0.69
	c-0.02,0.04-0.04,0.07-0.07,0.11C27.65,3,27.43,3.28,27.44,3.88c0.01,0.61-0.11,1.31-0.17,1.63c0.38,0.08,0.7,0.3,0.89,0.45
	c0.25-0.48,0.96-1.55,2.39-1.75c0.81-0.11,1.23-0.06,1.39,0.18C32.08,4.6,31.94,4.85,31.86,5c-0.01,0.03-0.03,0.05-0.04,0.07
	c-0.02,0.05-0.05,0.1-0.09,0.17c-0.12,0.23-0.31,0.57-0.51,1.31c-0.23,0.82-0.94,1.46-1.21,1.68c1.15,3.04-1.5,5.34-1.91,5.68
	c-0.35,1.55-0.93,2.46-1.73,2.7c-0.64,0.19-1.26-0.11-1.5-0.35c-0.23-0.22-0.7-0.58-0.94-0.75c-0.32,0.49-1.33,2.21-0.86,4
	c0.49,1.85-0.32,3.47-0.97,4.77c-0.15,0.3-0.3,0.59-0.41,0.85c-1.15,2.69-2.11,4.23-2.79,4.43c-0.05,0.01-0.09,0.02-0.13,0.02
	C18.48,30.08,17.97,30.1,17.94,30.1C17.95,30.1,17.95,30.1,17.94,30.1z"/>
</svg>
